# xmcd
#
# Track frame offsets: 
#        150
#        11537
#        25586
#        41426
#        55649
#        71993
#        89222
#        108306
#        121254
#        142139
#        158227
#        175229
#
# Disc length: 2668 seconds
#
# Revision: 0
# Processed by: cddbd v1.5.2PL0 Copyright (c) Steve Scherf et al.
# Submitted via: ExactAudioCopy v0.95b3
#
DISCID=a10a6a0c
DTITLE=The Lamplights - The Lamplights
DYEAR=2011
DGENRE=Folk
TTITLE0=Feel Alright
TTITLE1=Practise
TTITLE2=Traveling Song
TTITLE3=The Little Things
TTITLE4=May You Never
TTITLE5=Told Me Once
TTITLE6=Home Again
TTITLE7=Got to Go
TTITLE8=Wallflower
TTITLE9=Papa Keeka
TTITLE10=Love Vigilantes
TTITLE11=East Star
EXTD=
EXTT0=
EXTT1=
EXTT2=
EXTT3=
EXTT4=
EXTT5=
EXTT6=
EXTT7=
EXTT8=
EXTT9=
EXTT10=
EXTT11=
PLAYORDER=
